<svg xmlns="http://www.w3.org/2000/svg" viewBox="0 0 202 34"><rect x="2" y="33" width="4" height="7" fill="#0e7490" opacity="0.45"/><rect x="10" y="26" width="4" height="14" fill="#0e7490" opacity="0.45"/><rect x="18" y="18" width="4" height="22" fill="#0e7490" opacity="0.45"/><rect x="26" y="29" width="4" height="11" fill="#0e7490" opacity="0.45"/><rect x="34" y="10" width="4" height="30" fill="#be185d" opacity="0.85"/><rect x="42" y="22" width="4" height="18" fill="#0e7490" opacity="0.45"/><rect x="50" y="31" width="4" height="9" fill="#0e7490" opacity="0.45"/><rect x="58" y="15" width="4" height="25" fill="#0e7490" opacity="0.45"/><rect x="66" y="6" width="4" height="34" fill="#be185d" opacity="0.85"/><rect x="74" y="24" width="4" height="16" fill="#0e7490" opacity="0.45"/><rect x="82" y="28" width="4" height="12" fill="#0e7490" opacity="0.45"/><rect x="90" y="12" width="4" height="28" fill="#0e7490" opacity="0.45"/><rect x="98" y="20" width="4" height="20" fill="#0e7490" opacity="0.45"/><rect x="106" y="32" width="4" height="8" fill="#0e7490" opacity="0.45"/><rect x="114" y="25" width="4" height="15" fill="#0e7490" opacity="0.45"/><rect x="122" y="9" width="4" height="31" fill="#be185d" opacity="0.85"/><rect x="130" y="27" width="4" height="13" fill="#0e7490" opacity="0.45"/><rect x="138" y="34" width="4" height="6" fill="#0e7490" opacity="0.45"/><rect x="146" y="17" width="4" height="23" fill="#0e7490" opacity="0.45"/><rect x="154" y="23" width="4" height="17" fill="#0e7490" opacity="0.45"/><rect x="162" y="13" width="4" height="27" fill="#0e7490" opacity="0.45"/><rect x="170" y="30" width="4" height="10" fill="#0e7490" opacity="0.45"/><rect x="178" y="21" width="4" height="19" fill="#0e7490" opacity="0.45"/><rect x="186" y="7" width="4" height="33" fill="#be185d" opacity="0.85"/><rect x="194" y="26" width="4" height="14" fill="#0e7490" opacity="0.45"/><rect x="202" y="19" width="4" height="21" fill="#0e7490" opacity="0.45"/><rect x="210" y="31" width="4" height="9" fill="#0e7490" opacity="0.45"/><rect x="218" y="14" width="4" height="26" fill="#0e7490" opacity="0.45"/><rect x="226" y="28" width="4" height="12" fill="#0e7490" opacity="0.45"/><rect x="234" y="10" width="4" height="30" fill="#be185d" opacity="0.85"/><rect x="242" y="24" width="4" height="16" fill="#0e7490" opacity="0.45"/><rect x="250" y="33" width="4" height="7" fill="#0e7490" opacity="0.45"/><path d="M0 41 H202" stroke="#0e7490" stroke-width="1" opacity="0.5"/></svg>