<svg xmlns="http://www.w3.org/2000/svg" viewBox="0 0 202 34">
  <g stroke="#0e7490" stroke-width="0.5" opacity="0.22" fill="none"><path d="M0 2 V42"/><path d="M20 2 V42"/><path d="M40 2 V42"/><path d="M60 2 V42"/><path d="M80 2 V42"/><path d="M100 2 V42"/><path d="M120 2 V42"/><path d="M140 2 V42"/><path d="M160 2 V42"/><path d="M180 2 V42"/><path d="M200 2 V42"/><path d="M0 2 H202"/><path d="M0 12 H202"/><path d="M0 22 H202"/><path d="M0 32 H202"/></g>
  <polyline points="0,22.0 4,18.6 8,15.6 12,13.3 16,11.8 20,11.4 24,11.8 28,12.9 32,14.4 36,16.0 40,17.2 44,18.0 48,18.2 52,17.7 56,16.7 60,15.6 64,14.6 68,14.0 72,14.1 76,15.1 80,16.9 84,19.6 88,22.8 92,26.1 96,29.3 100,31.9 104,33.7 108,34.5 112,34.3 116,33.2 120,31.5 124,29.5 128,27.5 132,25.9 136,24.8 140,24.4 144,24.7 148,25.4 152,26.2 156,26.9 160,27.1 164,26.6 168,25.3 172,23.2 176,20.5 180,17.4 184,14.3 188,11.6 192,9.5 196,8.5 200,8.4" fill="none" stroke="#0e7490"
            stroke-width="1.4" opacity="0.85"/>
  <g fill="#be185d">
    <circle cx="72" cy="9.4" r="2"/>
    <circle cx="184" cy="33.6" r="2"/>
  </g>
  <path d="M0 22 H202" stroke="#0e7490" stroke-width="0.5"
        stroke-dasharray="3 4" opacity="0.4" fill="none"/>
</svg>