<svg xmlns="http://www.w3.org/2000/svg" viewBox="0 0 202 34">
  <g stroke="#0e7490" stroke-width="0.8" opacity="0.5" fill="none"><path d="M4 42 V34"/><path d="M11 42 V38"/><path d="M18 42 V38"/><path d="M25 42 V38"/><path d="M32 42 V38"/><path d="M39 42 V34"/><path d="M46 42 V38"/><path d="M53 42 V38"/><path d="M60 42 V38"/><path d="M67 42 V38"/><path d="M74 42 V34"/><path d="M81 42 V38"/><path d="M88 42 V38"/><path d="M95 42 V38"/><path d="M102 42 V38"/><path d="M109 42 V34"/><path d="M116 42 V38"/><path d="M123 42 V38"/><path d="M130 42 V38"/><path d="M137 42 V38"/><path d="M144 42 V34"/><path d="M151 42 V38"/><path d="M158 42 V38"/><path d="M165 42 V38"/><path d="M172 42 V38"/><path d="M179 42 V34"/></g>
  <circle cx="224" cy="22" r="8" fill="none" stroke="#0e7490" stroke-width="0.8" opacity="0.45"/><circle cx="224" cy="22" r="14" fill="none" stroke="#0e7490" stroke-width="0.8" opacity="0.45"/><circle cx="224" cy="22" r="20" fill="none" stroke="#0e7490" stroke-width="0.8" opacity="0.45"/>
  <path d="M224 22 L243 14" stroke="#be185d" stroke-width="1.4"
        opacity="0.9"/>
  <path d="M224 22 L224 2 A20 20 0 0 1 243 14 Z"
        fill="#0e7490" opacity="0.12"/>
  <g fill="#be185d" opacity="0.85">
    <circle cx="233" cy="11" r="1.6"/>
    <circle cx="212" cy="28" r="1.6"/>
  </g>
  <g stroke="#0e7490" stroke-width="0.8" opacity="0.35" fill="none">
    <path d="M4 12 H150 M4 18 H120 M4 24 H164 M4 30 H98"/>
  </g>
  <g fill="#0e7490" opacity="0.5">
    <rect x="154" y="10" width="26" height="4"/>
    <rect x="124" y="16" width="14" height="4"/>
    <rect x="168" y="22" width="20" height="4"/>
  </g>
</svg>