<svg xmlns="http://www.w3.org/2000/svg" viewBox="0 0 202 34"><g transform="translate(4 8.0) scale(0.7500)" fill="none" stroke="#0e7490" stroke-width="2.13" stroke-linecap="round" stroke-linejoin="round" opacity="0.75"><path d="M3 7V5a2 2 0 0 1 2-2h2"/><path d="M17 3h2a2 2 0 0 1 2 2v2"/><path d="M21 17v2a2 2 0 0 1-2 2h-2"/><path d="M7 21H5a2 2 0 0 1-2-2v-2"/><path d="M7 12h10"/></g><path d="M25 17.0 H39" stroke="#0e7490" stroke-width="0.8" opacity="0.35"/><g transform="translate(42 8.0) scale(0.7500)" fill="none" stroke="#0e7490" stroke-width="2.13" stroke-linecap="round" stroke-linejoin="round" opacity="0.75"><rect width="16" height="16" x="4" y="4" rx="2"/><rect width="6" height="6" x="9" y="9" rx="1"/><path d="M15 2v2"/><path d="M15 20v2"/><path d="M2 15h2"/><path d="M2 9h2"/><path d="M20 15h2"/><path d="M20 9h2"/><path d="M9 2v2"/><path d="M9 20v2"/></g><path d="M63 17.0 H77" stroke="#0e7490" stroke-width="0.8" opacity="0.35"/><g transform="translate(80 8.0) scale(0.7500)" fill="none" stroke="#0e7490" stroke-width="2.13" stroke-linecap="round" stroke-linejoin="round" opacity="0.75"><rect width="18" height="18" x="3" y="3" rx="2"/><path d="M11 9h4a2 2 0 0 0 2-2V3"/><circle cx="9" cy="9" r="2"/><path d="M7 21v-4a2 2 0 0 1 2-2h4"/><circle cx="15" cy="15" r="2"/></g><path d="M101 17.0 H115" stroke="#0e7490" stroke-width="0.8" opacity="0.35"/><g transform="translate(118 8.0) scale(0.7500)" fill="none" stroke="#0e7490" stroke-width="2.13" stroke-linecap="round" stroke-linejoin="round" opacity="0.75"><rect x="16" y="16" width="6" height="6" rx="1"/><rect x="2" y="16" width="6" height="6" rx="1"/><rect x="9" y="2" width="6" height="6" rx="1"/><path d="M5 16v-3a1 1 0 0 1 1-1h12a1 1 0 0 1 1 1v3"/><path d="M12 12V8"/></g><path d="M139 17.0 H153" stroke="#0e7490" stroke-width="0.8" opacity="0.35"/><g transform="translate(156 8.0) scale(0.7500)" fill="none" stroke="#be185d" stroke-width="2.13" stroke-linecap="round" stroke-linejoin="round" opacity="0.75"><path d="M19.07 4.93A10 10 0 0 0 6.99 3.34"/><path d="M4 6h.01"/><path d="M2.29 9.62A10 10 0 1 0 21.31 8.35"/><path d="M16.24 7.76A6 6 0 1 0 8.23 16.67"/><path d="M12 18h.01"/><path d="M17.99 11.66A6 6 0 0 1 15.77 16.67"/><circle cx="12" cy="12" r="2"/><path d="m13.41 10.59 5.66-5.66"/></g></svg>